# xmcd
#
# Track frame offsets: 
#        150
#        12693
#        22370
#        39207
#        50554
#        62961
#        73880
#        91760
#        102812
#        116144
#
# Disc length: 1806 seconds
#
# Revision: 2
# Processed by: cddbd v1.5.2PL0 Copyright (c) Steve Scherf et al.
# Submitted via: ExactAudioCopyFreeDBPlugin 1.0
#
DISCID=8e070c0a
DTITLE=Aretha Franklin - Aretha:  Lady Soul
DYEAR=1968
DGENRE=Soul
TTITLE0=Chain of Fools
TTITLE1=Money Won't Change You
TTITLE2=People Get Ready
TTITLE3=Niki Hoeky
TTITLE4=(You Make Me Feel Like) A Natural Woman
TTITLE5=Since You've Been Gone (Sweet Sweet Baby)
TTITLE6=Good to Me as I Am to You
TTITLE7=Come Back Baby
TTITLE8=Groovin'
TTITLE9=Ain't No Way
EXTD=
EXTT0=
EXTT1=
EXTT2=
EXTT3=
EXTT4=
EXTT5=
EXTT6=
EXTT7=
EXTT8=
EXTT9=
PLAYORDER=
